<?xml version="1.0" encoding="utf-8"?>
<!-- Generator: Adobe Illustrator 26.0.1, SVG Export Plug-In . SVG Version: 6.00 Build 0)  -->
<svg version="1.1" id="レイヤー_1" xmlns="http://www.w3.org/2000/svg" xmlns:xlink="http://www.w3.org/1999/xlink" x="0px"
	 y="0px" viewBox="0 0 100 100" style="enable-background:new 0 0 100 100;" xml:space="preserve">
<style type="text/css">
	.st0{fill:#7EC048;}
</style>
<path class="st0" d="M2.02,84.12C0.91,84.12,0,83.22,0,82.1V17.9c0-1.12,0.91-2.02,2.02-2.02s2.02,0.91,2.02,2.02v64.2
	C4.05,83.22,3.14,84.12,2.02,84.12z"/>
<path class="st0" d="M97.98,84.12c-1.12,0-2.02-0.91-2.02-2.02V66.99H2.02C0.91,66.99,0,66.08,0,64.96s0.91-2.02,2.02-2.02h95.95
	c1.12,0,2.02,0.91,2.02,2.02V82.1C100,83.22,99.09,84.12,97.98,84.12z"/>
<path class="st0" d="M97.98,66.99H31.49c-1.12,0-2.02-0.91-2.02-2.02V37.23c0-1.94,0.84-3.8,2.29-5.08c1.46-1.29,3.4-1.88,5.33-1.64
	l56.99,7.25c3.37,0.43,5.92,3.32,5.92,6.72v20.49C100,66.08,99.09,66.99,97.98,66.99z M33.52,62.94h62.44V44.47
	c0-1.37-1.02-2.53-2.38-2.7l-56.99-7.25c-0.78-0.1-1.55,0.13-2.14,0.66c-0.6,0.52-0.92,1.25-0.92,2.04V62.94z"/>
<path class="st0" d="M31.49,50.74H2.02C0.91,50.74,0,49.84,0,48.72c0-1.12,0.91-2.02,2.02-2.02h29.47c1.12,0,2.02,0.91,2.02,2.02
	C33.52,49.84,32.61,50.74,31.49,50.74z"/>
<path class="st0" d="M16.76,42.98c-5.79,0-10.5-4.71-10.5-10.5s4.71-10.5,10.5-10.5s10.5,4.71,10.5,10.5S22.55,42.98,16.76,42.98z
	 M16.76,26.03c-3.56,0-6.45,2.89-6.45,6.45c0,3.56,2.89,6.45,6.45,6.45s6.45-2.89,6.45-6.45C23.21,28.92,20.32,26.03,16.76,26.03z"
	/>
</svg>
