<?xml version="1.0" encoding="utf-8"?>
<!-- Generator: Adobe Illustrator 26.0.1, SVG Export Plug-In . SVG Version: 6.00 Build 0)  -->
<svg version="1.1" id="レイヤー_1" xmlns="http://www.w3.org/2000/svg" xmlns:xlink="http://www.w3.org/1999/xlink" x="0px"
	 y="0px" viewBox="0 0 100 100" style="enable-background:new 0 0 100 100;" xml:space="preserve">
<style type="text/css">
	.st0{fill:#F5A725;}
</style>
<path class="st0" d="M2.51,54.85c-1.01,0-1.93-0.61-2.32-1.55c-0.39-0.94-0.17-2.02,0.54-2.74L48.2,3.1c0.98-0.98,2.57-0.98,3.55,0
	l47.32,47.32c0.72,0.72,0.93,1.8,0.54,2.73c-0.39,0.94-1.3,1.55-2.32,1.55L2.51,54.85C2.51,54.85,2.51,54.85,2.51,54.85z
	 M49.97,8.42l-41.4,41.4l82.68-0.12L49.97,8.42z"/>
<path class="st0" d="M84.26,97.64H15.54c-1.39,0-2.51-1.12-2.51-2.51V52.31c0-1.39,1.12-2.51,2.51-2.51h68.72
	c1.39,0,2.51,1.12,2.51,2.51v42.82C86.77,96.51,85.65,97.64,84.26,97.64z M18.05,92.62h63.7v-37.8h-63.7V92.62z"/>
<path class="st0" d="M60.74,96.95H39.07c-1.39,0-2.51-1.12-2.51-2.51V68.4c0-1.39,1.12-2.51,2.51-2.51h21.68
	c1.39,0,2.51,1.12,2.51,2.51v26.05C63.25,95.83,62.13,96.95,60.74,96.95z M41.57,91.93h16.66V70.91H41.57V91.93z"/>
</svg>
