<?xml version="1.0" encoding="utf-8"?>
<!-- Generator: Adobe Illustrator 26.0.1, SVG Export Plug-In . SVG Version: 6.00 Build 0)  -->
<svg version="1.1" id="レイヤー_1" xmlns="http://www.w3.org/2000/svg" xmlns:xlink="http://www.w3.org/1999/xlink" x="0px"
	 y="0px" viewBox="0 0 160 40" style="enable-background:new 0 0 160 40;" xml:space="preserve">
<style type="text/css">
	.st0{fill:#55CDFF;}
</style>
<g>
	<path class="st0" d="M1.97,14.89c-0.52,0-0.82-0.57-0.82-1.1c0-0.55,0.3-1.07,0.82-1.07h21.02c0.52,0,0.83,0.52,0.83,1.07
		c0,0.52-0.3,1.1-0.83,1.1H1.97z"/>
	<path class="st0" d="M37.8,2.92c1.17,0,1.82,0.38,2.22,1.12c0.4,0.75,0.9,1.45,1.42,2.1c0.85-0.77,1.67-1.7,2.27-2.62
		c0.15-0.23,0.4-0.33,0.65-0.33c0.2,0,0.4,0.05,0.57,0.18c0.27,0.17,0.42,0.45,0.42,0.72c0,0.15-0.05,0.3-0.15,0.42
		c-0.75,1.02-1.65,1.97-2.65,2.85c0.62,0.65,1.3,1.22,2,1.77c1.1-1,2.05-2.05,2.72-3c0.15-0.2,0.38-0.3,0.6-0.3
		c0.2,0,0.4,0.08,0.6,0.2c0.25,0.17,0.4,0.42,0.4,0.7c0,0.17-0.05,0.35-0.17,0.5c-0.73,0.95-1.7,1.95-2.77,2.87
		c1.27,0.82,2.57,1.52,3.85,2.07c0.32,0.15,0.5,0.45,0.5,0.8c0,0.17-0.05,0.35-0.12,0.5c-0.17,0.4-0.5,0.6-0.82,0.6
		c-0.12,0-0.27-0.02-0.4-0.1c-1.62-0.72-3.27-1.7-4.8-2.87c0.08,0.12,0.12,0.32,0.12,0.55c0,0.5-0.22,0.82-0.65,0.82h-1.47v3.47
		h6.45c0.42,0,0.65,0.35,0.65,0.85c0,0.5-0.22,0.88-0.65,0.88h-6.45v4.37c0,0.85,0.25,1.02,2.52,1.02c1.6,0,2.4-0.15,2.72-0.42
		c0.3-0.22,0.47-1,0.57-1.97c0.08-0.5,0.35-0.73,0.88-0.73c0.05,0,0.1,0,0.15,0c0.5,0.05,0.85,0.38,0.85,0.85c0,0.03,0,0.08,0,0.1
		c-0.12,1.05-0.4,2.25-0.77,2.8c-0.55,0.8-1.42,1.15-4.1,1.15c-2.02,0-3.17-0.15-3.72-0.4c-0.67-0.3-0.97-0.85-0.97-1.72v-5.05
		h-4.02c-0.32,1.52-0.82,2.77-1.57,3.8c-1.17,1.6-2.95,2.77-5.35,3.65c-0.12,0.05-0.25,0.07-0.4,0.07c-0.38,0-0.72-0.2-0.9-0.65
		c-0.07-0.15-0.1-0.33-0.1-0.47c0-0.35,0.22-0.65,0.65-0.83c1.92-0.67,3.4-1.52,4.35-2.67c0.65-0.8,1.1-1.72,1.37-2.9h-5.6
		c-0.42,0-0.67-0.38-0.67-0.88c0-0.5,0.25-0.85,0.67-0.85h5.92c0.12-1.15,0.17-2.32,0.17-3.47h-1.07c-0.42,0-0.65-0.32-0.65-0.82
		c0-0.18,0.02-0.35,0.1-0.48c-1.5,1.15-3.12,2.12-4.75,2.87c-0.15,0.07-0.32,0.1-0.47,0.1c-0.35,0-0.65-0.2-0.8-0.58
		c-0.08-0.15-0.1-0.3-0.1-0.45c0-0.33,0.2-0.62,0.55-0.75c1.67-0.7,3.35-1.72,4.85-2.9c-1.1-1.08-2.17-2.07-3.2-2.87
		C29.07,6.47,29,6.3,29,6.1s0.1-0.42,0.27-0.6c0.2-0.2,0.45-0.33,0.7-0.33c0.2,0,0.38,0.05,0.55,0.2c1,0.77,2.15,1.82,3.27,2.95
		c1.12-1.02,2.1-2.12,2.85-3.22c0.1-0.15,0.15-0.27,0.15-0.35c0-0.1-0.1-0.15-0.35-0.15h-5.17c-0.43,0-0.7-0.38-0.7-0.82
		c0-0.48,0.23-0.85,0.7-0.85H37.8z M43.62,10.85c0.08,0,0.15,0,0.2,0.02c-1.9-1.5-3.62-3.35-4.87-5.47
		c-0.1-0.18-0.17-0.25-0.25-0.25c-0.07,0-0.15,0.07-0.25,0.25c-1.23,2.05-2.92,3.9-4.85,5.45c0.05,0,0.08,0,0.12,0H43.62z
		 M36.67,12.49c0,1.15-0.05,2.32-0.17,3.47h3.77v-3.47H36.67z"/>
	<path class="st0" d="M58.7,19.92c0.73,1.62,2.12,2.37,3.62,2.62c1.15,0.2,2.72,0.27,4.75,0.27c3.07,0,6.12-0.15,8.67-0.35
		c0.05,0,0.08,0,0.12,0c0.6,0,0.88,0.38,0.9,0.97c0,0.03,0,0.05,0,0.08c0,0.55-0.27,0.9-0.95,0.92c-2.52,0.12-5.9,0.22-8.87,0.22
		c-2.22,0-4.1-0.12-5.32-0.4c-1.75-0.4-3.15-1.3-3.92-2.8c-0.88,1.1-2.05,2.25-3.07,3.07c-0.12,0.1-0.3,0.15-0.48,0.15
		c-0.27,0-0.57-0.12-0.77-0.38c-0.15-0.22-0.23-0.45-0.23-0.67c0-0.25,0.1-0.47,0.32-0.65c0.95-0.7,2.42-1.95,3.35-3.12v-5.35
		c0-0.5-0.15-0.65-0.6-0.65h-2.15c-0.45,0-0.75-0.27-0.75-0.85s0.3-0.88,0.75-0.88h2.82c1.27,0,1.8,0.65,1.8,1.97V19.92z
		 M58.67,6.92C58.82,7.17,58.9,7.4,58.9,7.6c0,0.27-0.15,0.52-0.42,0.7c-0.23,0.18-0.48,0.28-0.7,0.28c-0.27,0-0.52-0.12-0.7-0.43
		c-0.85-1.32-1.9-2.7-2.95-3.72C53.97,4.3,53.9,4.1,53.9,3.92c0-0.25,0.12-0.5,0.38-0.73c0.23-0.17,0.45-0.25,0.67-0.25
		c0.23,0,0.45,0.08,0.6,0.25C56.65,4.25,57.85,5.67,58.67,6.92z M75.59,6.85c0.45,0,0.7,0.35,0.7,0.87c0,0.5-0.25,0.85-0.7,0.85
		h-6.57c0,0.27,0,0.57,0,0.85c0,0.3,0,0.6,0,0.9c0,1.55-0.02,3.12-0.23,4.67h3.47c0.52,0,0.77-0.18,0.77-0.73v-3.62
		c0-0.47,0.33-0.72,0.9-0.72c0.6,0,0.97,0.25,0.97,0.72v3.97c0,1.47-0.7,2.07-2.17,2.07h-4.27c-0.4,1.57-1.3,3.65-4.07,5.27
		c-0.15,0.1-0.35,0.15-0.55,0.15c-0.35,0-0.67-0.15-0.85-0.45c-0.1-0.17-0.15-0.38-0.15-0.55c0-0.3,0.15-0.55,0.42-0.7
		c1.8-0.95,2.82-2.1,3.35-3.72h-3.2c-1.5,0-2.15-0.6-2.15-2.07v-3.97c0-0.47,0.35-0.72,0.95-0.72c0.57,0,0.92,0.25,0.92,0.72v3.62
		c0,0.55,0.25,0.73,0.77,0.73h3.05v-0.08c0.2-1.67,0.2-3.77,0.2-6.35h-6.4c-0.45,0-0.7-0.35-0.7-0.85c0-0.52,0.25-0.87,0.7-0.87h8.1
		c0.97-1.38,1.77-2.82,2.32-4.02c0.15-0.32,0.4-0.5,0.77-0.5c0.15,0,0.3,0.02,0.48,0.07c0.42,0.12,0.65,0.35,0.65,0.67
		c0,0.1-0.02,0.23-0.1,0.38c-0.48,0.97-1.27,2.3-2.15,3.4H75.59z M66.3,5.5c0,0.3-0.2,0.5-0.55,0.67c-0.17,0.07-0.35,0.12-0.5,0.12
		c-0.35,0-0.62-0.18-0.77-0.48c-0.3-0.65-0.85-1.57-1.3-2.22C63.05,3.45,63,3.27,63,3.12c0-0.27,0.17-0.5,0.5-0.67
		c0.23-0.1,0.4-0.15,0.58-0.15c0.3,0,0.52,0.15,0.7,0.4c0.5,0.68,1.05,1.6,1.42,2.42C66.27,5.25,66.3,5.37,66.3,5.5z"/>
	<path class="st0" d="M80.27,5.97c-0.42,0-0.67-0.35-0.67-0.82c0-0.48,0.25-0.82,0.67-0.82h4.2v-1.6c0-0.42,0.33-0.67,0.88-0.67
		c0.57,0,0.88,0.25,0.88,0.67v1.6h4.12c0.43,0,0.68,0.35,0.68,0.8c0,0.5-0.25,0.85-0.68,0.85h-4.12v1.97h2.3c1.27,0,1.9,0.5,1.9,1.8
		v6.07c0,1.3-0.62,1.8-1.9,1.8h-2.3v2.02h4.1c0.42,0,0.65,0.37,0.65,0.85s-0.22,0.82-0.65,0.82h-4.1v3.4c0,0.47-0.28,0.7-0.88,0.7
		c-0.53,0-0.88-0.22-0.88-0.7v-3.4h-4.4c-0.42,0-0.65-0.35-0.65-0.82s0.23-0.85,0.65-0.85h4.4v-2.02h-2.25c-1.28,0-1.9-0.5-1.9-1.8
		V9.75c0-1.3,0.62-1.8,1.9-1.8h2.25V5.97H80.27z M82.7,9.47c-0.42,0-0.67,0.15-0.67,0.6v1.92h2.45V9.47H82.7z M84.47,13.47h-2.45
		v2.05c0,0.45,0.25,0.57,0.67,0.57h1.77V13.47z M86.22,11.99h2.52v-1.92c0-0.45-0.22-0.6-0.65-0.6h-1.87V11.99z M88.1,16.09
		c0.42,0,0.65-0.12,0.65-0.57v-2.05h-2.52v2.62H88.1z M96.5,12.69c-0.78,3.17-1.75,6.35-3,9.37c2.1-0.25,4.17-0.58,6.25-1
		c-0.62-1.62-1.35-3.17-2.12-4.67c-0.07-0.15-0.12-0.3-0.12-0.45c0-0.27,0.17-0.52,0.53-0.7c0.17-0.08,0.32-0.12,0.47-0.12
		c0.3,0,0.55,0.17,0.75,0.5c1.32,2.5,2.42,5.02,3.42,7.95c0.05,0.15,0.08,0.3,0.08,0.42c0,0.4-0.22,0.73-0.65,0.88
		c-0.18,0.05-0.33,0.08-0.45,0.08c-0.4,0-0.67-0.22-0.8-0.67c-0.17-0.55-0.35-1.08-0.53-1.6c-3.02,0.65-6.3,1.2-9.45,1.6
		c-0.05,0-0.1,0-0.15,0c-0.45,0-0.85-0.33-0.92-0.88c0-0.05,0-0.12,0-0.17c0-0.53,0.33-0.8,0.78-0.85c0.33-0.03,0.65-0.05,0.97-0.1
		c0.7-1.55,1.25-3.15,1.75-4.77c0.5-1.57,0.92-3.17,1.27-4.8h-2.8c-0.47,0-0.7-0.38-0.7-0.9c0-0.48,0.22-0.85,0.7-0.85h10.32
		c0.47,0,0.7,0.38,0.7,0.85c0,0.52-0.22,0.9-0.7,0.9H96.5z M101.24,4.1c0.48,0,0.73,0.42,0.73,0.9c0,0.52-0.25,0.92-0.73,0.92h-8.57
		c-0.45,0-0.7-0.4-0.7-0.92c0-0.48,0.25-0.9,0.7-0.9H101.24z"/>
	<path class="st0" d="M128.44,4.27c0.52,0,0.77,0.35,0.77,0.85c0,0.52-0.25,0.87-0.77,0.87h-15.67c-0.83,0-1.1,0.3-1.1,1.07
		c0,2.9-0.03,6.95-0.3,9.42c-0.32,2.82-1.32,5.7-3.12,8.22c-0.22,0.32-0.52,0.47-0.8,0.47c-0.22,0-0.45-0.08-0.67-0.22
		c-0.25-0.18-0.42-0.45-0.42-0.75c0-0.2,0.08-0.42,0.25-0.67c1.82-2.38,2.72-4.87,3.02-7.75c-0.83,0.47-1.77,0.97-2.72,1.35
		c-0.17,0.07-0.33,0.1-0.45,0.1c-0.35,0-0.6-0.2-0.72-0.58c-0.05-0.12-0.08-0.25-0.08-0.38c0-0.37,0.2-0.72,0.58-0.87
		c1.08-0.4,2.4-1.02,3.52-1.65c0.1-2.2,0.08-4.92,0.08-7.1c0-1.6,0.82-2.4,2.37-2.4h6.15V2.82c0-0.5,0.35-0.75,0.92-0.75
		c0.6,0,0.92,0.25,0.92,0.75v1.45H128.44z M106.85,6.7c0.33,0,0.58,0.15,0.72,0.45c0.55,1.1,1.1,2.4,1.52,3.77
		c0.03,0.12,0.05,0.23,0.05,0.33c0,0.35-0.2,0.62-0.62,0.77c-0.12,0.05-0.25,0.08-0.38,0.08c-0.35,0-0.67-0.17-0.8-0.57
		c-0.42-1.32-0.9-2.57-1.45-3.67c-0.05-0.1-0.07-0.2-0.07-0.3c0-0.33,0.2-0.62,0.55-0.75C106.52,6.72,106.7,6.7,106.85,6.7z
		 M121.34,14.22c1,2.45,2.7,4.02,4.07,5.02c0.25,0.17,0.38,0.42,0.38,0.7c0,0.2-0.08,0.4-0.2,0.57c-0.17,0.2-0.4,0.33-0.67,0.33
		c-0.2,0-0.4-0.08-0.6-0.23c-1.6-1.3-2.75-2.65-3.57-4.4c-0.12,0.4-0.27,0.77-0.45,1.1c-0.75,1.5-2,2.85-3.2,3.65
		c-0.17,0.12-0.35,0.17-0.52,0.17c-0.25,0-0.5-0.1-0.67-0.33c-0.15-0.17-0.2-0.35-0.2-0.55c0-0.3,0.15-0.57,0.4-0.72
		c1.15-0.73,2.25-1.85,2.77-3.02c0.3-0.62,0.52-1.37,0.7-2.3h-3.47c-0.53,0-0.83,0.17-0.83,0.7v9.82c0,0.45-0.38,0.67-0.92,0.67
		c-0.52,0-0.92-0.22-0.92-0.67V14.52c0-1.37,0.7-1.92,2.1-1.92h4.25c0.08-0.82,0.1-1.62,0.12-2.45h-6.4c-0.45,0-0.67-0.4-0.67-0.9
		c0-0.45,0.22-0.83,0.67-0.83h14.67c0.45,0,0.67,0.38,0.67,0.83c0,0.5-0.22,0.9-0.67,0.9h-6.52c-0.02,0.83-0.07,1.62-0.15,2.45h4.37
		c1.42,0,2.1,0.55,2.1,1.92v8.4c0,1.45-0.7,2.2-2.5,2.2c-1.15,0-1.97-0.05-2.7-0.2c-0.52-0.1-0.77-0.45-0.77-0.85
		c0-0.08,0-0.12,0.02-0.17c0.08-0.47,0.35-0.72,0.75-0.72c0.08,0,0.15,0,0.22,0.02c0.75,0.15,1.48,0.23,2.03,0.23
		c0.92,0,1.15-0.08,1.15-1v-7.5c0-0.52-0.28-0.7-0.8-0.7H121.34z"/>
	<path class="st0" d="M132.8,4.77c0-1.4,0.7-1.97,2.05-1.97h3.82c1.1,0,1.75,0.65,1.75,1.62c0,0.28-0.05,0.55-0.15,0.85
		c-0.57,1.82-1.5,3.52-2.4,4.92c-0.07,0.12-0.12,0.25-0.12,0.38c0,0.15,0.05,0.3,0.18,0.42c1.55,1.75,2.35,3.67,2.35,5.52
		c0,2.35-0.9,3.3-2.65,3.3c-0.7,0-1.25-0.08-1.62-0.17c-0.42-0.1-0.67-0.43-0.67-0.9c0-0.05,0-0.12,0.02-0.17
		c0.05-0.48,0.4-0.77,0.78-0.77c0.05,0,0.1,0,0.17,0.02c0.35,0.07,0.77,0.12,1.2,0.12c0.7,0,0.9-0.38,0.9-1.67
		c0-1.32-0.67-3-2.22-4.75c-0.2-0.23-0.3-0.55-0.3-0.9c0-0.3,0.08-0.6,0.25-0.88c0.95-1.45,1.75-3.1,2.22-4.57
		c0.02-0.12,0.05-0.23,0.05-0.3c0-0.25-0.17-0.35-0.55-0.35h-2.5c-0.47,0-0.7,0.12-0.7,0.62v19.5c0,0.52-0.35,0.77-0.92,0.77
		c-0.58,0-0.92-0.25-0.92-0.77V4.77z M141.32,14.97c-0.45,0-0.7-0.35-0.7-0.85c0-0.47,0.25-0.85,0.7-0.85h13.02
		c0.45,0,0.67,0.35,0.67,0.85c0,0.48-0.23,0.85-0.67,0.85h-4.22v7.45c0,0.7,0.25,0.75,1.65,0.75c1.03,0,1.35-0.15,1.53-0.5
		c0.25-0.53,0.3-1.45,0.35-2.52c0.03-0.5,0.35-0.75,0.83-0.75c0.05,0,0.1,0,0.15,0c0.53,0.05,0.83,0.35,0.83,0.87
		c0,0.02,0,0.02,0,0.05c-0.05,1.37-0.28,2.67-0.62,3.4c-0.3,0.6-0.78,0.95-1.5,1.07c-0.42,0.08-1.2,0.12-1.95,0.12
		c-0.5,0-1-0.02-1.35-0.07c-1.3-0.18-1.75-0.62-1.75-1.95v-7.92h-2.4c-0.17,3.97-1.12,6.07-2.5,7.52c-1.12,1.17-2.67,2.1-4.27,2.7
		c-0.17,0.08-0.32,0.1-0.47,0.1c-0.38,0-0.7-0.2-0.88-0.65c-0.07-0.15-0.1-0.3-0.1-0.42c0-0.38,0.22-0.67,0.65-0.83
		c1.38-0.47,2.67-1.22,3.65-2.2c1.05-1.05,1.92-2.75,2.05-6.22H141.32z M152.94,4.77c1.3,0,1.9,0.73,1.9,2.05v2.4
		c0,0.55-0.4,0.77-0.95,0.77c-0.58,0-0.95-0.22-0.95-0.62V7.15c0-0.52-0.17-0.7-0.65-0.7h-9.4c-0.48,0-0.65,0.17-0.65,0.7v2.17
		c0,0.42-0.38,0.65-0.92,0.65s-0.9-0.23-0.9-0.77V6.82c0-1.32,0.58-2.05,1.87-2.05h4v-2c0-0.42,0.4-0.65,0.98-0.65
		c0.6,0,1,0.23,1,0.65v2H152.94z M143.5,10.75c-0.47,0-0.72-0.38-0.72-0.85c0-0.47,0.25-0.85,0.72-0.85h8.22
		c0.45,0,0.72,0.38,0.72,0.85c0,0.48-0.27,0.85-0.72,0.85H143.5z"/>
</g>
<g>
	<path class="st0" d="M4.29,30.71c0-0.23,0.17-0.34,0.39-0.34c0.23,0,0.41,0.11,0.41,0.34v5.91c0,0.23-0.17,0.34-0.41,0.34
		c-0.22,0-0.39-0.12-0.39-0.34V30.71z"/>
	<path class="st0" d="M8.25,36.6c0,0.23-0.17,0.35-0.39,0.35c-0.23,0-0.39-0.12-0.39-0.36v-5.28c0-0.64,0.26-0.9,0.85-0.9h1.85
		c1.32,0,2.06,0.67,2.06,1.86c0,1.25-0.77,1.97-2.09,1.97H8.25V36.6z M10.12,33.55c0.84,0,1.29-0.45,1.29-1.26
		c0-0.75-0.46-1.17-1.29-1.17h-1.6c-0.18,0-0.27,0.11-0.27,0.29v2.13H10.12z"/>
	<path class="st0" d="M14.99,36.6c0,0.23-0.17,0.35-0.39,0.35c-0.23,0-0.39-0.12-0.39-0.36v-5.28c0-0.64,0.26-0.9,0.85-0.9h1.85
		c1.32,0,2.06,0.67,2.06,1.86c0,1.25-0.77,1.97-2.09,1.97h-1.88V36.6z M16.86,33.55c0.84,0,1.29-0.45,1.29-1.26
		c0-0.75-0.46-1.17-1.29-1.17h-1.6c-0.18,0-0.27,0.11-0.27,0.29v2.13H16.86z"/>
	<path class="st0" d="M20.71,36.72c-0.06,0.17-0.18,0.23-0.32,0.23c-0.06,0-0.11-0.01-0.17-0.02c-0.17-0.04-0.29-0.18-0.29-0.34
		c0-0.05,0.01-0.09,0.02-0.14l2.27-5.69c0.11-0.28,0.32-0.39,0.58-0.39c0.27,0,0.48,0.11,0.59,0.39l2.27,5.71
		c0.02,0.05,0.03,0.09,0.03,0.14c0,0.17-0.13,0.29-0.3,0.33c-0.05,0.02-0.1,0.03-0.15,0.03c-0.15,0-0.28-0.08-0.34-0.23L24.23,35
		h-2.88L20.71,36.72z M23.98,34.3l-0.92-2.42c-0.09-0.24-0.18-0.51-0.26-0.79c-0.08,0.28-0.16,0.55-0.26,0.8L21.6,34.3H23.98z"/>
	<path class="st0" d="M26.43,31.15c-0.21,0-0.32-0.17-0.32-0.36c0-0.2,0.12-0.38,0.32-0.38h4.59c0.2,0,0.32,0.17,0.32,0.38
		c0,0.19-0.12,0.36-0.32,0.36h-1.89v5.46c0,0.23-0.17,0.34-0.4,0.34c-0.22,0-0.4-0.12-0.4-0.34v-5.46H26.43z"/>
	<path class="st0" d="M35.62,33.23c1.3,0.27,2.01,0.72,2.01,1.92c0,1.08-0.82,1.88-2.32,1.88c-1.9,0-2.29-0.98-2.49-1.66
		c-0.01-0.04-0.02-0.08-0.02-0.11c0-0.18,0.14-0.31,0.32-0.35c0.05-0.01,0.09-0.02,0.14-0.02c0.16,0,0.32,0.08,0.37,0.25
		c0.15,0.56,0.42,1.18,1.64,1.18c0.95,0,1.54-0.46,1.54-1.17c0-0.68-0.38-0.98-1.36-1.18l-0.67-0.14c-1.25-0.26-1.82-0.73-1.82-1.82
		c0-0.88,0.65-1.72,2.22-1.72c1.5,0,2.02,0.8,2.2,1.4c0.02,0.04,0.02,0.08,0.02,0.12c0,0.18-0.14,0.3-0.31,0.33
		c-0.04,0.01-0.09,0.02-0.14,0.02c-0.15,0-0.3-0.07-0.37-0.24c-0.13-0.47-0.48-0.94-1.41-0.94c-0.97,0-1.41,0.48-1.41,1.03
		c0,0.6,0.29,0.91,1.22,1.09L35.62,33.23z"/>
	<path class="st0" d="M39.64,30.71c0-0.23,0.17-0.34,0.41-0.34c0.22,0,0.39,0.11,0.39,0.34v3.78c0,1.22,0.6,1.83,1.72,1.83
		c1.15,0,1.75-0.62,1.75-1.84v-3.77c0-0.23,0.17-0.34,0.4-0.34c0.23,0,0.4,0.11,0.4,0.34v3.81c0,1.65-0.89,2.53-2.54,2.53
		c-1.61,0-2.53-0.86-2.53-2.53V30.71z"/>
	<path class="st0" d="M51.42,34.53c0-0.14-0.04-0.23-0.22-0.23h-1.09c-0.22,0-0.33-0.14-0.33-0.35c0-0.21,0.11-0.37,0.33-0.37h1.34
		c0.49,0,0.68,0.22,0.68,0.72v2.35c0,0.24-0.13,0.36-0.35,0.36c-0.23,0-0.36-0.12-0.36-0.31v-0.22c0-0.08,0.01-0.23,0.02-0.34
		c-0.06,0.1-0.16,0.25-0.24,0.32c-0.33,0.31-0.88,0.57-1.52,0.57c-1.83,0-2.92-1.36-2.92-3.37c0-1.95,1.08-3.37,2.9-3.37
		c1.39,0,2.05,0.77,2.34,1.39c0.03,0.07,0.04,0.12,0.04,0.17c0,0.17-0.12,0.28-0.26,0.33c-0.07,0.03-0.14,0.04-0.21,0.04
		c-0.14,0-0.27-0.06-0.34-0.22c-0.23-0.5-0.64-0.99-1.57-0.99c-1.27,0-2.07,1.03-2.07,2.65c0,1.68,0.86,2.64,2.11,2.64
		c0.92,0,1.72-0.62,1.72-1.59V34.53z"/>
	<path class="st0" d="M58.05,30.53c0.08-0.12,0.18-0.18,0.3-0.18c0.07,0,0.15,0.03,0.22,0.07c0.12,0.07,0.23,0.19,0.23,0.33
		c0,0.06-0.02,0.12-0.06,0.18l-2.2,3.3v2.37c0,0.23-0.17,0.34-0.39,0.34c-0.24,0-0.4-0.12-0.4-0.34v-2.37l-2.22-3.32
		c-0.03-0.06-0.05-0.11-0.05-0.17c0-0.14,0.11-0.27,0.24-0.34c0.08-0.03,0.15-0.06,0.23-0.06c0.11,0,0.22,0.05,0.3,0.18l1.9,2.97
		L58.05,30.53z"/>
	<path class="st0" d="M60.16,36.72c-0.06,0.17-0.18,0.23-0.32,0.23c-0.06,0-0.11-0.01-0.17-0.02c-0.17-0.04-0.29-0.18-0.29-0.34
		c0-0.05,0.01-0.09,0.02-0.14l2.27-5.69c0.11-0.28,0.32-0.39,0.58-0.39c0.27,0,0.48,0.11,0.59,0.39l2.27,5.71
		c0.02,0.05,0.03,0.09,0.03,0.14c0,0.17-0.13,0.29-0.3,0.33c-0.05,0.02-0.1,0.03-0.15,0.03c-0.15,0-0.28-0.08-0.34-0.23L63.68,35
		H60.8L60.16,36.72z M63.43,34.3l-0.92-2.42c-0.09-0.24-0.18-0.51-0.26-0.79c-0.08,0.28-0.16,0.55-0.26,0.8l-0.94,2.42H63.43z"/>
	<path class="st0" d="M71.77,36.33c0.05,0.07,0.07,0.14,0.07,0.22c0,0.12-0.07,0.25-0.18,0.33c-0.08,0.06-0.16,0.08-0.25,0.08
		c-0.11,0-0.23-0.05-0.29-0.14l-2.36-3.13l-0.91,0.92v2c0,0.23-0.17,0.34-0.39,0.34c-0.23,0-0.4-0.12-0.4-0.34v-5.91
		c0-0.23,0.17-0.34,0.4-0.34c0.23,0,0.39,0.11,0.39,0.34v2.91l3.02-3.15c0.07-0.07,0.17-0.11,0.26-0.11c0.1,0,0.2,0.03,0.27,0.1
		c0.09,0.08,0.14,0.2,0.14,0.32c0,0.08-0.02,0.17-0.08,0.22l-2.15,2.17L71.77,36.33z"/>
	<path class="st0" d="M73.72,30.71c0-0.23,0.17-0.34,0.41-0.34c0.22,0,0.39,0.11,0.39,0.34v3.78c0,1.22,0.6,1.83,1.72,1.83
		c1.15,0,1.75-0.62,1.75-1.84v-3.77c0-0.23,0.17-0.34,0.4-0.34c0.23,0,0.4,0.11,0.4,0.34v3.81c0,1.65-0.89,2.53-2.54,2.53
		c-1.61,0-2.53-0.86-2.53-2.53V30.71z"/>
	<path class="st0" d="M86.06,36.46c0.02,0.05,0.02,0.09,0.02,0.14c0,0.16-0.11,0.28-0.27,0.33c-0.06,0.02-0.12,0.02-0.18,0.02
		c-0.14,0-0.27-0.07-0.33-0.22l-0.21-0.53c-0.6-1.62-0.83-2.22-1.67-2.22h-1.53v2.62c0,0.23-0.16,0.35-0.38,0.35
		c-0.23,0-0.4-0.12-0.4-0.36v-5.28c0-0.64,0.26-0.9,0.85-0.9h1.95c1.21,0,1.87,0.64,1.87,1.67c0,0.96-0.54,1.46-1.32,1.62
		c0.5,0.15,0.77,0.71,1.38,2.27L86.06,36.46z M83.81,33.3c0.71,0,1.17-0.44,1.17-1.11c0-0.71-0.38-1.09-1.12-1.09h-1.69
		c-0.17,0-0.28,0.09-0.28,0.29v1.91H83.81z"/>
	<path class="st0" d="M88.81,35.91c0,0.19,0.12,0.27,0.31,0.27h2.98c0.22,0,0.33,0.15,0.33,0.36c0,0.2-0.12,0.37-0.33,0.37h-3.22
		c-0.59,0-0.85-0.26-0.85-0.89v-4.7c0-0.64,0.26-0.9,0.85-0.9h3.15c0.22,0,0.33,0.15,0.33,0.36s-0.12,0.37-0.33,0.37h-2.93
		c-0.2,0-0.28,0.09-0.28,0.29v1.72h2.84c0.21,0,0.32,0.15,0.32,0.36c0,0.19-0.12,0.35-0.32,0.35h-2.84V35.91z"/>
	<path class="st0" d="M98.57,30.71c0-0.23,0.17-0.34,0.4-0.34c0.23,0,0.39,0.11,0.39,0.34v5.72c0,0.32-0.17,0.52-0.5,0.52
		c-0.36,0-0.49-0.14-0.7-0.47l-2.21-3.57c-0.33-0.53-0.75-1.35-0.94-1.77c0.05,0.53,0.12,1.69,0.12,2.92v2.56
		c0,0.23-0.17,0.34-0.39,0.34c-0.23,0-0.4-0.12-0.4-0.34v-5.75c0-0.31,0.2-0.5,0.53-0.5c0.38,0,0.52,0.15,0.67,0.4l2.1,3.41
		c0.38,0.62,0.85,1.52,1.07,1.98c-0.05-0.52-0.13-1.72-0.13-2.92V30.71z"/>
	<path class="st0" d="M109.79,30.71c0-0.23,0.17-0.34,0.42-0.34c0.22,0,0.38,0.11,0.38,0.34v5.91c0,0.23-0.17,0.34-0.38,0.34
		c-0.24,0-0.42-0.12-0.42-0.34v-2.76h-3.55v2.76c0,0.23-0.17,0.34-0.4,0.34c-0.23,0-0.4-0.12-0.4-0.34v-5.91
		c0-0.23,0.17-0.34,0.4-0.34c0.22,0,0.4,0.11,0.4,0.34v2.42h3.55V30.71z"/>
	<path class="st0" d="M118.5,33.66c0,2.05-1.12,3.37-2.9,3.37s-2.92-1.32-2.92-3.38c0-2.04,1.12-3.37,2.92-3.37
		C117.38,30.29,118.5,31.6,118.5,33.66z M113.51,33.66c0,1.61,0.82,2.65,2.09,2.65c1.3,0,2.07-1.02,2.07-2.7
		c0-1.57-0.81-2.61-2.07-2.61C114.31,31,113.51,32.05,113.51,33.66z"/>
	<path class="st0" d="M123.05,33.23c1.3,0.27,2.01,0.72,2.01,1.92c0,1.08-0.83,1.88-2.32,1.88c-1.9,0-2.29-0.98-2.49-1.66
		c-0.01-0.04-0.02-0.08-0.02-0.11c0-0.18,0.14-0.31,0.32-0.35c0.05-0.01,0.09-0.02,0.14-0.02c0.16,0,0.32,0.08,0.37,0.25
		c0.15,0.56,0.42,1.18,1.64,1.18c0.95,0,1.54-0.46,1.54-1.17c0-0.68-0.38-0.98-1.36-1.18l-0.67-0.14c-1.25-0.26-1.82-0.73-1.82-1.82
		c0-0.88,0.65-1.72,2.22-1.72c1.5,0,2.02,0.8,2.2,1.4c0.02,0.04,0.02,0.08,0.02,0.12c0,0.18-0.14,0.3-0.31,0.33
		c-0.04,0.01-0.09,0.02-0.14,0.02c-0.15,0-0.3-0.07-0.37-0.24c-0.13-0.47-0.48-0.94-1.41-0.94c-0.97,0-1.41,0.48-1.41,1.03
		c0,0.6,0.29,0.91,1.22,1.09L123.05,33.23z"/>
	<path class="st0" d="M127.88,36.6c0,0.23-0.17,0.35-0.39,0.35c-0.23,0-0.39-0.12-0.39-0.36v-5.28c0-0.64,0.26-0.9,0.85-0.9h1.85
		c1.32,0,2.06,0.67,2.06,1.86c0,1.25-0.77,1.97-2.09,1.97h-1.88V36.6z M129.75,33.55c0.84,0,1.29-0.45,1.29-1.26
		c0-0.75-0.46-1.17-1.29-1.17h-1.6c-0.18,0-0.27,0.11-0.27,0.29v2.13H129.75z"/>
	<path class="st0" d="M133.83,30.71c0-0.23,0.17-0.34,0.39-0.34c0.23,0,0.41,0.11,0.41,0.34v5.91c0,0.23-0.17,0.34-0.41,0.34
		c-0.23,0-0.39-0.12-0.39-0.34V30.71z"/>
	<path class="st0" d="M136.82,31.15c-0.21,0-0.33-0.17-0.33-0.36c0-0.2,0.12-0.38,0.32-0.38h4.59c0.2,0,0.32,0.17,0.32,0.38
		c0,0.19-0.12,0.36-0.32,0.36h-1.89v5.46c0,0.23-0.18,0.34-0.4,0.34s-0.4-0.12-0.4-0.34v-5.46H136.82z"/>
	<path class="st0" d="M142.9,36.72c-0.06,0.17-0.18,0.23-0.33,0.23c-0.06,0-0.11-0.01-0.17-0.02c-0.17-0.04-0.29-0.18-0.29-0.34
		c0-0.05,0.01-0.09,0.03-0.14l2.27-5.69c0.11-0.28,0.32-0.39,0.58-0.39c0.27,0,0.48,0.11,0.59,0.39l2.27,5.71
		c0.03,0.05,0.03,0.09,0.03,0.14c0,0.17-0.13,0.29-0.3,0.33c-0.05,0.02-0.1,0.03-0.15,0.03c-0.15,0-0.28-0.08-0.34-0.23L146.42,35
		h-2.88L142.9,36.72z M146.17,34.3l-0.92-2.42c-0.09-0.24-0.18-0.51-0.26-0.79c-0.07,0.28-0.16,0.55-0.26,0.8l-0.94,2.42H146.17z"/>
	<path class="st0" d="M149.82,30.72c0-0.25,0.17-0.36,0.4-0.36c0.23,0,0.4,0.11,0.4,0.35v5.15c0,0.19,0.11,0.29,0.3,0.29h2.95
		c0.22,0,0.34,0.16,0.34,0.37c0,0.2-0.12,0.38-0.34,0.38h-3.2c-0.59,0-0.85-0.26-0.85-0.89V30.72z"/>
</g>
</svg>
