<?xml version="1.0" encoding="utf-8"?>
<!-- Generator: Adobe Illustrator 26.0.1, SVG Export Plug-In . SVG Version: 6.00 Build 0)  -->
<svg version="1.1" id="_x32_" xmlns="http://www.w3.org/2000/svg" xmlns:xlink="http://www.w3.org/1999/xlink" x="0px" y="0px"
	 viewBox="0 0 512 512" style="enable-background:new 0 0 512 512;" xml:space="preserve">
<g>
	<path d="M269.65,170.35c0.28-1.87,0.52-3.25,0.69-4.15l0.18-0.97l0.05-0.25l0.07-0.37l0.06-0.39c0.65-5.21,4.46-9.27,9.39-10.59
		l14.16-0.55h28.6c18.24-0.01,33.02-14.79,33.02-33.03V33.02C355.86,14.77,341.08,0,322.84,0c-0.24,0-3.21,0-28.86,0h-15.66
		c-2.54,0-5.13,0-7.97,0c-8.83-0.01-17.38,2.45-25.25,6.7c-13.78,7.46-25.72,20.1-36.36,36.25c-15.91,24.25-28.9,56.7-38.11,93.54
		c-9.18,36.82-14.49,78.02-14.49,119.52c0.02,63.25,12.28,125.73,31.96,173.25c9.87,23.76,21.56,43.83,35.09,58.5
		c6.77,7.31,14.04,13.31,21.92,17.56c7.87,4.24,16.42,6.7,25.25,6.7c2.84,0,5.43,0,7.97,0h15.66c25.65,0,28.62,0,28.86,0
		c18.24-0.01,33.02-14.78,33.02-33.02v-87.02c-0.01-18.25-14.78-33.02-33.02-33.03h-28.6l-14.16-0.55
		c-4.93-1.33-8.74-5.39-9.39-10.59l-0.05-0.39l-0.08-0.38l-0.05-0.24c-0.59-3.06-6.18-33.55-6.18-90.77
		c0-30.51,1.59-53.43,3.17-68.64C268.29,179.76,269.07,174.08,269.65,170.35z M335.6,478.98c-0.02,7.05-5.71,12.74-12.76,12.76
		c-0.21,0-2.78,0-22.78,0V379.19h22.78c7.04,0.02,12.74,5.71,12.76,12.77V478.98z M335.6,120.04c-0.02,7.05-5.72,12.75-12.76,12.77
		h-22.78V20.26c20,0,22.57,0,22.78,0c7.04,0.02,12.74,5.71,12.76,12.76V120.04z M250.74,160.91l-0.03-0.01
		c-0.13,0.64-6.64,32.66-6.64,95.1s6.51,94.45,6.64,95.09l0.03-0.01c2.07,13.67,12.32,24.33,25.35,27.24l0.9,0.2l10.9,0.43v112.77
		h-9.58c-2.54,0-5.13,0-7.97,0c-5.08-0.01-10.21-1.36-15.64-4.27c-9.48-5.06-19.64-15.18-29.04-29.54
		c-14.15-21.48-26.63-52.15-35.38-87.3c-8.77-35.17-13.9-74.86-13.89-114.62c-0.02-60.59,11.95-121.04,30.4-165.49
		c9.2-22.22,20.05-40.41,31.25-52.5c5.6-6.05,11.24-10.56,16.65-13.47c5.43-2.91,10.56-4.27,15.64-4.27c2.84,0,5.43,0,7.97,0h9.58
		v112.77l-10.9,0.43l-0.9,0.21C263.06,136.59,252.82,147.23,250.74,160.91z"/>
</g>
</svg>
