<?xml version="1.0" encoding="utf-8"?>
<!-- Generator: Adobe Illustrator 26.0.1, SVG Export Plug-In . SVG Version: 6.00 Build 0)  -->
<svg version="1.1" id="レイヤー_1" xmlns="http://www.w3.org/2000/svg" xmlns:xlink="http://www.w3.org/1999/xlink" x="0px"
	 y="0px" viewBox="0 0 500 500" style="enable-background:new 0 0 500 500;" xml:space="preserve">
<style type="text/css">
	.st0{fill:#55CDFF;}
</style>
<g>
	<path class="st0" d="M250,26c15.44,0,30.41,2.4,44.51,7.15c14.29,4.81,26.95,11.8,37.61,20.77c11.09,9.32,19.74,20.61,25.71,33.53
		c6.61,14.29,9.96,30.65,9.96,48.62c0,17.19-9.04,66.3-69.56,202.14c-17.39,39.03-34.9,75.87-48.23,103.27
		c-13.33-27.4-30.84-64.24-48.23-103.27c-60.52-135.84-69.56-184.95-69.56-202.14c0-17.97,3.35-34.33,9.96-48.62
		c5.98-12.93,14.63-24.21,25.71-33.53c10.67-8.97,23.32-15.96,37.61-20.77C219.59,28.4,234.56,26,250,26 M249.88,230.32
		c46.65,0,84.61-37.95,84.61-84.61s-37.95-84.61-84.61-84.61c-46.65,0-84.61,37.95-84.61,84.61S203.23,230.32,249.88,230.32 M250,0
		c-71.89,0-143.79,45.35-143.79,136.06C106.21,218.6,250,500,250,500s143.79-281.4,143.79-363.94C393.79,45.35,321.89,0,250,0L250,0
		z M249.88,204.32c-32.37,0-58.61-26.24-58.61-58.61s26.24-58.61,58.61-58.61c32.37,0,58.61,26.24,58.61,58.61
		S282.25,204.32,249.88,204.32L249.88,204.32z"/>
</g>
</svg>
